<?xml version="1.0" encoding="utf-8"?>
<!-- Generator: Adobe Illustrator 26.3.1, SVG Export Plug-In . SVG Version: 6.00 Build 0)  -->
<svg version="1.1" id="レイヤー_1" xmlns="http://www.w3.org/2000/svg" xmlns:xlink="http://www.w3.org/1999/xlink" x="0px"
	 y="0px" viewBox="0 0 345.8 78.9" style="enable-background:new 0 0 345.8 78.9;" xml:space="preserve">
<style type="text/css">
	.st0{fill:#003B77;}
	.st1{fill:url(#SVGID_1_);}
</style>
<g>
	<path class="st0" d="M74.7,8c0-0.7,0.3-1.6,0.8-2.1c0.5-0.5,1-0.9,2.8-0.9c0.5,0,8.5,0,8.5,0c1.8,0,2.3,0.5,2.8,0.9
		C90,6.4,90.3,7.3,90.3,8c0,0.7,0,23.2,0,23.2h25.8c0,0,0-22.5,0-23.2c0-0.7,0.3-1.6,0.8-2.1c0.5-0.5,1-0.9,2.8-0.9
		c0.5,0,8.5,0,8.5,0c1.8,0,2.3,0.5,2.8,0.9c0.5,0.5,0.8,1.4,0.8,2.1c0,0.7,0,62.2,0,62.9c0,0.7-0.3,1.6-0.8,2.1
		c-0.5,0.5-1,0.9-2.8,0.9c0,0-8,0-8.5,0c-1.8,0-2.3-0.5-2.8-0.9c-0.5-0.5-0.8-1.4-0.8-2.1c0-0.7,0-26,0-26H90.3c0,0,0,25.3,0,26
		c0,0.7-0.3,1.6-0.8,2.1c-0.5,0.5-1,0.9-2.8,0.9c0,0-8,0-8.5,0c-1.8,0-2.3-0.5-2.8-0.9c-0.5-0.5-0.8-1.4-0.8-2.1
		C74.7,70.2,74.7,8.7,74.7,8z"/>
	<path class="st0" d="M16.4,39.4c0,15.5,9.7,23,22,23c4.6,0,8.3-0.8,11.2-1.8c0,0,0,0,0.1,0c2.1-0.4,2.3,1.1,2.7,2.4l2,7.4
		c0.5,2-0.9,2.4-2.2,2.9c-3.3,1.1-8.3,2-14.4,2C17.1,75.3,0.4,62.5,0,39.4C-0.4,16.3,17.1,3.5,37.8,3.5c6.1,0,11.1,0.9,14.4,2
		c1.3,0.4,2.8,0.8,2.2,2.9l-2,7.4c-0.4,1.3-0.6,2.8-2.7,2.4c0,0-0.1,0-0.1,0c-2.9-1-6.6-1.8-11.2-1.8C26.1,16.4,16.4,23.9,16.4,39.4
		z"/>
	<path class="st0" d="M345.8,70.9c0,0.7-0.3,1.6-0.8,2.1c-0.5,0.5-1,0.9-2.8,0.9h-8c-1.8,0-2.3-0.5-2.8-0.9
		c-0.5-0.5-0.8-1.4-0.8-2.1c0-0.7,0-62,0-62.7c0-0.7,0.3-1.6,0.8-2.1c0.5-0.5,1-0.9,2.8-0.9h8c1.8,0,2.3,0.5,2.8,0.9
		c0.5,0.5,0.8,1.4,0.8,2.1C345.8,8.8,345.8,70.2,345.8,70.9z"/>
	<path class="st0" d="M309.2,70.6c-0.2-0.8-0.3-1.3-0.3-1.3c-1.2-4.1-2.6-9.8-4-15.1c-1.7-6.4-4.4-10.9-9.2-12.9V41
		c6-2.2,12.2-8.2,12.2-17c0-6.4-2.3-11.2-6.5-14.5C296.5,5.5,289.3,4,279,4c-6.2,0-11.8,0.3-16.3,0.9c-3.7,0.4-4.5,1.3-4.5,4.5v59.9
		c0,2.6-0.5,4.6,3.1,4.6h9.4c3.6,0,3.1-2,3.1-4.6V47.6c0-0.6,0.4-1,1.3-1h3.3c6.5,0.1,9.5,2.4,11.4,11.1c1.1,4.9,2.2,8.8,3,11.6
		c0.6,2,1,4.6,3.2,4.6c0.6,0,1.1,0,1.1,0h8.6C307.9,73.9,309.8,73,309.2,70.6z M279.8,35.2h-4.9c-1.1,0-1.2-0.2-1.2-1.2V17.4
		c0-0.6-0.1-1.3,1.2-1.4c1.3-0.1,3.2-0.3,5.9-0.3c7.2,0,11.5,3.3,11.5,9.6C292.2,31.3,287.6,35.2,279.8,35.2z"/>
	<g>
		<path class="st0" d="M193.3,16.6c19.5-8.6,38.1-5.1,41.6,7.6c1.7,6.2-0.5,13.4-5.4,20.1c10.7-14.1,15.2-28.7,10.4-37.3
			C233-5.4,209.3-0.9,187,17.2c-5.6,4.6-10.6,9.6-14.9,14.7C177.4,25.8,184.7,20.4,193.3,16.6z"/>
		
			<radialGradient id="SVGID_1_" cx="12043.0879" cy="1755.5005" r="140.0257" gradientTransform="matrix(0.2081 0 0 0.2081 -2319.6294 -331.1419)" gradientUnits="userSpaceOnUse">
			<stop  offset="0" style="stop-color:#FFFFFF"/>
			<stop  offset="8.330628e-02" style="stop-color:#EFF2F6"/>
			<stop  offset="0.2471" style="stop-color:#C4D1DF"/>
			<stop  offset="0.4755" style="stop-color:#7F9CBB"/>
			<stop  offset="0.757" style="stop-color:#215488"/>
			<stop  offset="0.85" style="stop-color:#003B77"/>
		</radialGradient>
		<path class="st1" d="M224,39.5c0,17-13.8,30.8-30.8,30.8c-17,0-30.8-13.8-30.8-30.8c0-17,13.8-30.8,30.8-30.8
			C210.2,8.7,224,22.4,224,39.5z"/>
		<path class="st0" d="M193,62.3c-19.5,8.6-38.1,5.1-41.6-7.6c-1.7-6.2,0.5-13.4,5.4-20.2c-10.7,14.2-15.3,28.7-10.4,37.4
			c6.9,12.4,30.6,7.9,52.9-10.2c5.6-4.6,10.6-9.5,14.8-14.6C209,53.1,201.6,58.6,193,62.3z"/>
	</g>
</g>
</svg>
